<mxfile host="app.diagrams.net" modified="2021-02-07T01:30:54.264Z" agent="5.0 (Windows NT 10.0; Win64; x64) AppleWebKit/537.36 (KHTML, like Gecko) Chrome/88.0.4324.146 Safari/537.36" etag="JGgCYwxCjey6vPbODzwH" version="14.2.9" type="github" pages="2">
  <diagram id="kgpKYQtTHZ0yAKxKKP6v" name="Page-1">
    <mxGraphModel dx="868" dy="393" grid="0" gridSize="10" guides="1" tooltips="1" connect="1" arrows="1" fold="1" page="1" pageScale="1" pageWidth="850" pageHeight="1100" math="0" shadow="0">
      <root>
        <mxCell id="0" />
        <mxCell id="1" parent="0" />
        <mxCell id="3nuBFxr9cyL0pnOWT2aG-1" value="main page" style="shape=umlLifeline;perimeter=lifelinePerimeter;container=1;collapsible=0;recursiveResize=0;rounded=0;shadow=0;strokeWidth=1;" parent="1" vertex="1">
          <mxGeometry x="205" y="70" width="100" height="370" as="geometry" />
        </mxCell>
        <mxCell id="3nuBFxr9cyL0pnOWT2aG-2" value="" style="points=[];perimeter=orthogonalPerimeter;rounded=0;shadow=0;strokeWidth=1;" parent="3nuBFxr9cyL0pnOWT2aG-1" vertex="1">
          <mxGeometry x="45" y="80" width="10" height="290" as="geometry" />
        </mxCell>
        <mxCell id="3nuBFxr9cyL0pnOWT2aG-5" value="retrieve code page" style="shape=umlLifeline;perimeter=lifelinePerimeter;container=1;collapsible=0;recursiveResize=0;rounded=0;shadow=0;strokeWidth=1;" parent="1" vertex="1">
          <mxGeometry x="385" y="70" width="115" height="300" as="geometry" />
        </mxCell>
        <mxCell id="3nuBFxr9cyL0pnOWT2aG-6" value="" style="points=[];perimeter=orthogonalPerimeter;rounded=0;shadow=0;strokeWidth=1;" parent="3nuBFxr9cyL0pnOWT2aG-5" vertex="1">
          <mxGeometry x="45" y="80" width="10" height="210" as="geometry" />
        </mxCell>
        <mxCell id="3nuBFxr9cyL0pnOWT2aG-7" value="return" style="verticalAlign=bottom;endArrow=open;dashed=1;endSize=8;exitX=0;exitY=0.95;shadow=0;strokeWidth=1;" parent="1" source="3nuBFxr9cyL0pnOWT2aG-6" target="3nuBFxr9cyL0pnOWT2aG-2" edge="1">
          <mxGeometry relative="1" as="geometry">
            <mxPoint x="360" y="226" as="targetPoint" />
          </mxGeometry>
        </mxCell>
        <mxCell id="3nuBFxr9cyL0pnOWT2aG-8" value="choose retrieve last code" style="verticalAlign=bottom;endArrow=block;entryX=0;entryY=0;shadow=0;strokeWidth=1;" parent="1" source="3nuBFxr9cyL0pnOWT2aG-2" target="3nuBFxr9cyL0pnOWT2aG-6" edge="1">
          <mxGeometry relative="1" as="geometry">
            <mxPoint x="360" y="150" as="sourcePoint" />
          </mxGeometry>
        </mxCell>
        <mxCell id="_YugtkpWp54NfVYeK3mi-2" value="user" style="shape=umlActor;verticalLabelPosition=bottom;labelBackgroundColor=#ffffff;verticalAlign=top;html=1;outlineConnect=0;" parent="1" vertex="1">
          <mxGeometry x="70" y="160" width="50" height="120" as="geometry" />
        </mxCell>
        <mxCell id="_YugtkpWp54NfVYeK3mi-6" value="mobile database" style="shape=umlLifeline;perimeter=lifelinePerimeter;container=1;collapsible=0;recursiveResize=0;rounded=0;shadow=0;strokeWidth=1;" parent="1" vertex="1">
          <mxGeometry x="540" y="70" width="115" height="300" as="geometry" />
        </mxCell>
        <mxCell id="_YugtkpWp54NfVYeK3mi-7" value="" style="points=[];perimeter=orthogonalPerimeter;rounded=0;shadow=0;strokeWidth=1;" parent="_YugtkpWp54NfVYeK3mi-6" vertex="1">
          <mxGeometry x="45" y="110" width="10" height="180" as="geometry" />
        </mxCell>
        <mxCell id="_YugtkpWp54NfVYeK3mi-8" value="enter code number" style="verticalAlign=bottom;endArrow=block;shadow=0;strokeWidth=1;entryX=0.1;entryY=0.175;entryDx=0;entryDy=0;entryPerimeter=0;" parent="1" edge="1">
          <mxGeometry relative="1" as="geometry">
            <mxPoint x="440" y="183.0000000000001" as="sourcePoint" />
            <mxPoint x="586" y="181" as="targetPoint" />
          </mxGeometry>
        </mxCell>
        <mxCell id="_YugtkpWp54NfVYeK3mi-9" value="retrieve the last code&#xa; which the user received" style="verticalAlign=bottom;endArrow=open;dashed=1;endSize=8;shadow=0;strokeWidth=1;" parent="1" edge="1">
          <mxGeometry relative="1" as="geometry">
            <mxPoint x="440" y="259.9999999999999" as="targetPoint" />
            <mxPoint x="580" y="260" as="sourcePoint" />
          </mxGeometry>
        </mxCell>
        <mxCell id="_YugtkpWp54NfVYeK3mi-10" value="use" style="verticalAlign=bottom;endArrow=block;shadow=0;strokeWidth=1;entryX=0.1;entryY=0.175;entryDx=0;entryDy=0;entryPerimeter=0;" parent="1" edge="1">
          <mxGeometry relative="1" as="geometry">
            <mxPoint x="440" y="322.0000000000001" as="sourcePoint" />
            <mxPoint x="586" y="320" as="targetPoint" />
          </mxGeometry>
        </mxCell>
        <mxCell id="_YugtkpWp54NfVYeK3mi-23" value="main page" style="shape=umlLifeline;perimeter=lifelinePerimeter;container=1;collapsible=0;recursiveResize=0;rounded=0;shadow=0;strokeWidth=1;" parent="1" vertex="1">
          <mxGeometry x="205" y="540" width="100" height="370" as="geometry" />
        </mxCell>
        <mxCell id="_YugtkpWp54NfVYeK3mi-24" value="" style="points=[];perimeter=orthogonalPerimeter;rounded=0;shadow=0;strokeWidth=1;" parent="_YugtkpWp54NfVYeK3mi-23" vertex="1">
          <mxGeometry x="45" y="80" width="10" height="290" as="geometry" />
        </mxCell>
        <mxCell id="_YugtkpWp54NfVYeK3mi-25" value="charge meter&#xa;wireless page " style="shape=umlLifeline;perimeter=lifelinePerimeter;container=1;collapsible=0;recursiveResize=0;rounded=0;shadow=0;strokeWidth=1;" parent="1" vertex="1">
          <mxGeometry x="385" y="540" width="115" height="400" as="geometry" />
        </mxCell>
        <mxCell id="_YugtkpWp54NfVYeK3mi-26" value="" style="points=[];perimeter=orthogonalPerimeter;rounded=0;shadow=0;strokeWidth=1;" parent="_YugtkpWp54NfVYeK3mi-25" vertex="1">
          <mxGeometry x="45" y="80" width="10" height="210" as="geometry" />
        </mxCell>
        <mxCell id="_YugtkpWp54NfVYeK3mi-27" value="return" style="verticalAlign=bottom;endArrow=open;dashed=1;endSize=8;shadow=0;strokeWidth=1;exitX=0.504;exitY=0.862;exitDx=0;exitDy=0;exitPerimeter=0;" parent="1" source="_YugtkpWp54NfVYeK3mi-30" target="_YugtkpWp54NfVYeK3mi-24" edge="1">
          <mxGeometry x="-0.1244" relative="1" as="geometry">
            <mxPoint x="360" y="696" as="targetPoint" />
            <mxPoint as="offset" />
          </mxGeometry>
        </mxCell>
        <mxCell id="_YugtkpWp54NfVYeK3mi-28" value="choose charge meter opttion" style="verticalAlign=bottom;endArrow=block;entryX=0;entryY=0;shadow=0;strokeWidth=1;" parent="1" source="_YugtkpWp54NfVYeK3mi-24" target="_YugtkpWp54NfVYeK3mi-26" edge="1">
          <mxGeometry relative="1" as="geometry">
            <mxPoint x="360" y="620" as="sourcePoint" />
          </mxGeometry>
        </mxCell>
        <mxCell id="_YugtkpWp54NfVYeK3mi-29" value="user" style="shape=umlActor;verticalLabelPosition=bottom;labelBackgroundColor=#ffffff;verticalAlign=top;html=1;outlineConnect=0;" parent="1" vertex="1">
          <mxGeometry x="70" y="630" width="50" height="120" as="geometry" />
        </mxCell>
        <mxCell id="_YugtkpWp54NfVYeK3mi-30" value="mobile database" style="shape=umlLifeline;perimeter=lifelinePerimeter;container=1;collapsible=0;recursiveResize=0;rounded=0;shadow=0;strokeWidth=1;" parent="1" vertex="1">
          <mxGeometry x="540" y="540" width="115" height="390" as="geometry" />
        </mxCell>
        <mxCell id="_YugtkpWp54NfVYeK3mi-31" value="" style="points=[];perimeter=orthogonalPerimeter;rounded=0;shadow=0;strokeWidth=1;" parent="_YugtkpWp54NfVYeK3mi-30" vertex="1">
          <mxGeometry x="45" y="110" width="10" height="180" as="geometry" />
        </mxCell>
        <mxCell id="_YugtkpWp54NfVYeK3mi-32" value="enter the code retrieved &#xa;from the website" style="verticalAlign=bottom;endArrow=block;shadow=0;strokeWidth=1;entryX=0.1;entryY=0.175;entryDx=0;entryDy=0;entryPerimeter=0;" parent="1" edge="1">
          <mxGeometry relative="1" as="geometry">
            <mxPoint x="440" y="653.0000000000001" as="sourcePoint" />
            <mxPoint x="586" y="651" as="targetPoint" />
          </mxGeometry>
        </mxCell>
        <mxCell id="_YugtkpWp54NfVYeK3mi-33" value="if the code is entered &#xa;or not" style="verticalAlign=bottom;endArrow=open;dashed=1;endSize=8;shadow=0;strokeWidth=1;" parent="1" edge="1">
          <mxGeometry relative="1" as="geometry">
            <mxPoint x="440" y="729.9999999999999" as="targetPoint" />
            <mxPoint x="580" y="730" as="sourcePoint" />
          </mxGeometry>
        </mxCell>
        <mxCell id="_YugtkpWp54NfVYeK3mi-34" value="if not used the process is &#xa;done successfully by the&#xa; meter" style="verticalAlign=bottom;endArrow=block;shadow=0;strokeWidth=1;entryX=0.1;entryY=0.175;entryDx=0;entryDy=0;entryPerimeter=0;" parent="1" edge="1">
          <mxGeometry x="-0.0409" y="1" relative="1" as="geometry">
            <mxPoint x="440" y="799.0000000000001" as="sourcePoint" />
            <mxPoint x="586" y="797" as="targetPoint" />
            <mxPoint as="offset" />
          </mxGeometry>
        </mxCell>
      </root>
    </mxGraphModel>
  </diagram>
  <diagram id="kNn00J7A23Nuee2EbEmS" name="Page-2">
    <mxGraphModel dx="1108" dy="25" grid="0" gridSize="10" guides="1" tooltips="0" connect="1" arrows="1" fold="1" page="0" pageScale="1" pageWidth="850" pageHeight="1100" math="0" shadow="0">
      <root>
        <mxCell id="uem-egisZAOhIk2TDSUu-0" />
        <mxCell id="uem-egisZAOhIk2TDSUu-1" parent="uem-egisZAOhIk2TDSUu-0" />
        <mxCell id="wE4-2cQKRybPXJfNOOlW-12" value="main page" style="shape=umlLifeline;perimeter=lifelinePerimeter;container=1;collapsible=0;recursiveResize=0;rounded=0;shadow=0;strokeWidth=1;" vertex="1" parent="uem-egisZAOhIk2TDSUu-1">
          <mxGeometry x="63" y="530" width="100" height="370" as="geometry" />
        </mxCell>
        <mxCell id="wE4-2cQKRybPXJfNOOlW-13" value="" style="points=[];perimeter=orthogonalPerimeter;rounded=0;shadow=0;strokeWidth=1;" vertex="1" parent="wE4-2cQKRybPXJfNOOlW-12">
          <mxGeometry x="45" y="80" width="10" height="290" as="geometry" />
        </mxCell>
        <mxCell id="wE4-2cQKRybPXJfNOOlW-14" value="text" style="shape=umlLifeline;perimeter=lifelinePerimeter;container=1;collapsible=0;recursiveResize=0;rounded=0;shadow=0;strokeWidth=1;" vertex="1" parent="uem-egisZAOhIk2TDSUu-1">
          <mxGeometry x="243" y="530" width="115" height="523" as="geometry" />
        </mxCell>
        <mxCell id="wE4-2cQKRybPXJfNOOlW-15" value="" style="points=[];perimeter=orthogonalPerimeter;rounded=0;shadow=0;strokeWidth=1;" vertex="1" parent="wE4-2cQKRybPXJfNOOlW-14">
          <mxGeometry x="45" y="80" width="10" height="210" as="geometry" />
        </mxCell>
        <mxCell id="wE4-2cQKRybPXJfNOOlW-16" value="return" style="verticalAlign=bottom;endArrow=open;dashed=1;endSize=8;shadow=0;strokeWidth=1;" edge="1" parent="uem-egisZAOhIk2TDSUu-1">
          <mxGeometry x="-0.1244" relative="1" as="geometry">
            <mxPoint x="299" y="987" as="targetPoint" />
            <mxPoint as="offset" />
            <mxPoint x="917" y="987" as="sourcePoint" />
          </mxGeometry>
        </mxCell>
        <mxCell id="wE4-2cQKRybPXJfNOOlW-17" value="text" style="verticalAlign=bottom;endArrow=block;entryX=0;entryY=0;shadow=0;strokeWidth=1;" edge="1" parent="uem-egisZAOhIk2TDSUu-1" source="wE4-2cQKRybPXJfNOOlW-13" target="wE4-2cQKRybPXJfNOOlW-15">
          <mxGeometry relative="1" as="geometry">
            <mxPoint x="218" y="610" as="sourcePoint" />
          </mxGeometry>
        </mxCell>
        <mxCell id="wE4-2cQKRybPXJfNOOlW-18" value="user" style="shape=umlActor;verticalLabelPosition=bottom;labelBackgroundColor=#ffffff;verticalAlign=top;html=1;outlineConnect=0;" vertex="1" parent="uem-egisZAOhIk2TDSUu-1">
          <mxGeometry x="13" y="638" width="50" height="120" as="geometry" />
        </mxCell>
        <mxCell id="wE4-2cQKRybPXJfNOOlW-19" value="text" style="shape=umlLifeline;perimeter=lifelinePerimeter;container=1;collapsible=0;recursiveResize=0;rounded=0;shadow=0;strokeWidth=1;" vertex="1" parent="uem-egisZAOhIk2TDSUu-1">
          <mxGeometry x="398" y="530" width="115" height="533" as="geometry" />
        </mxCell>
        <mxCell id="wE4-2cQKRybPXJfNOOlW-20" value="" style="points=[];perimeter=orthogonalPerimeter;rounded=0;shadow=0;strokeWidth=1;" vertex="1" parent="wE4-2cQKRybPXJfNOOlW-19">
          <mxGeometry x="45" y="90" width="10" height="180" as="geometry" />
        </mxCell>
        <mxCell id="wE4-2cQKRybPXJfNOOlW-21" value="text" style="verticalAlign=bottom;endArrow=block;shadow=0;strokeWidth=1;entryX=0.1;entryY=0.175;entryDx=0;entryDy=0;entryPerimeter=0;" edge="1" parent="uem-egisZAOhIk2TDSUu-1">
          <mxGeometry relative="1" as="geometry">
            <mxPoint x="298" y="672" as="sourcePoint" />
            <mxPoint x="444" y="670" as="targetPoint" />
          </mxGeometry>
        </mxCell>
        <mxCell id="wE4-2cQKRybPXJfNOOlW-22" value="text" style="verticalAlign=bottom;endArrow=open;dashed=1;endSize=8;shadow=0;strokeWidth=1;" edge="1" parent="uem-egisZAOhIk2TDSUu-1">
          <mxGeometry x="0.1392" y="-5" relative="1" as="geometry">
            <mxPoint x="298" y="731" as="targetPoint" />
            <mxPoint x="608" y="731" as="sourcePoint" />
            <mxPoint as="offset" />
          </mxGeometry>
        </mxCell>
        <mxCell id="wE4-2cQKRybPXJfNOOlW-23" value="text" style="verticalAlign=bottom;endArrow=block;shadow=0;strokeWidth=1;" edge="1" parent="uem-egisZAOhIk2TDSUu-1" target="wE4-2cQKRybPXJfNOOlW-26">
          <mxGeometry x="-0.0409" y="1" relative="1" as="geometry">
            <mxPoint x="302" y="861" as="sourcePoint" />
            <mxPoint x="448" y="859" as="targetPoint" />
            <mxPoint as="offset" />
          </mxGeometry>
        </mxCell>
        <mxCell id="wE4-2cQKRybPXJfNOOlW-26" value="text" style="shape=umlLifeline;perimeter=lifelinePerimeter;container=1;collapsible=0;recursiveResize=0;rounded=0;shadow=0;strokeWidth=1;" vertex="1" parent="uem-egisZAOhIk2TDSUu-1">
          <mxGeometry x="705" y="530" width="115" height="534" as="geometry" />
        </mxCell>
        <mxCell id="wE4-2cQKRybPXJfNOOlW-27" value="" style="points=[];perimeter=orthogonalPerimeter;rounded=0;shadow=0;strokeWidth=1;" vertex="1" parent="wE4-2cQKRybPXJfNOOlW-26">
          <mxGeometry x="44" y="108" width="10" height="38" as="geometry" />
        </mxCell>
        <mxCell id="wE4-2cQKRybPXJfNOOlW-30" value="text" style="shape=umlLifeline;perimeter=lifelinePerimeter;container=1;collapsible=0;recursiveResize=0;rounded=0;shadow=0;strokeWidth=1;" vertex="1" parent="uem-egisZAOhIk2TDSUu-1">
          <mxGeometry x="860" y="530" width="115" height="520" as="geometry" />
        </mxCell>
        <mxCell id="wE4-2cQKRybPXJfNOOlW-35" value="text" style="verticalAlign=bottom;endArrow=block;shadow=0;strokeWidth=1;entryX=0.1;entryY=0.175;entryDx=0;entryDy=0;entryPerimeter=0;" edge="1" parent="uem-egisZAOhIk2TDSUu-1">
          <mxGeometry relative="1" as="geometry">
            <mxPoint x="451" y="640" as="sourcePoint" />
            <mxPoint x="597" y="638" as="targetPoint" />
          </mxGeometry>
        </mxCell>
        <mxCell id="wE4-2cQKRybPXJfNOOlW-36" value="text" style="shape=umlLifeline;perimeter=lifelinePerimeter;container=1;collapsible=0;recursiveResize=0;rounded=0;shadow=0;strokeWidth=1;" vertex="1" parent="uem-egisZAOhIk2TDSUu-1">
          <mxGeometry x="551" y="530" width="115" height="545" as="geometry" />
        </mxCell>
        <mxCell id="wE4-2cQKRybPXJfNOOlW-37" value="" style="points=[];perimeter=orthogonalPerimeter;rounded=0;shadow=0;strokeWidth=1;" vertex="1" parent="wE4-2cQKRybPXJfNOOlW-36">
          <mxGeometry x="45" y="108" width="10" height="210" as="geometry" />
        </mxCell>
        <mxCell id="wE4-2cQKRybPXJfNOOlW-39" value="" style="endArrow=none;dashed=1;html=1;" edge="1" parent="uem-egisZAOhIk2TDSUu-1">
          <mxGeometry width="50" height="50" relative="1" as="geometry">
            <mxPoint x="120" y="1054" as="sourcePoint" />
            <mxPoint x="120" y="569" as="targetPoint" />
          </mxGeometry>
        </mxCell>
        <mxCell id="wE4-2cQKRybPXJfNOOlW-44" value="text" style="verticalAlign=bottom;endArrow=open;dashed=1;endSize=8;shadow=0;strokeWidth=1;" edge="1" parent="uem-egisZAOhIk2TDSUu-1">
          <mxGeometry x="-0.1244" relative="1" as="geometry">
            <mxPoint x="294" y="1050" as="targetPoint" />
            <mxPoint as="offset" />
            <mxPoint x="455" y="1050" as="sourcePoint" />
          </mxGeometry>
        </mxCell>
        <mxCell id="wE4-2cQKRybPXJfNOOlW-45" value="text" style="verticalAlign=bottom;endArrow=block;shadow=0;strokeWidth=1;entryX=0.53;entryY=0.921;entryDx=0;entryDy=0;entryPerimeter=0;" edge="1" parent="uem-egisZAOhIk2TDSUu-1" target="wE4-2cQKRybPXJfNOOlW-19">
          <mxGeometry x="-0.0409" y="1" relative="1" as="geometry">
            <mxPoint x="301" y="1022" as="sourcePoint" />
            <mxPoint x="447" y="1020" as="targetPoint" />
            <mxPoint as="offset" />
          </mxGeometry>
        </mxCell>
        <mxCell id="wE4-2cQKRybPXJfNOOlW-46" value="text" style="verticalAlign=bottom;endArrow=block;shadow=0;strokeWidth=1;" edge="1" parent="uem-egisZAOhIk2TDSUu-1" target="wE4-2cQKRybPXJfNOOlW-30">
          <mxGeometry x="-0.0409" y="1" relative="1" as="geometry">
            <mxPoint x="302" y="912" as="sourcePoint" />
            <mxPoint x="762" y="912" as="targetPoint" />
            <mxPoint as="offset" />
          </mxGeometry>
        </mxCell>
        <mxCell id="wE4-2cQKRybPXJfNOOlW-47" value="text" style="verticalAlign=bottom;endArrow=block;shadow=0;strokeWidth=1;" edge="1" parent="uem-egisZAOhIk2TDSUu-1">
          <mxGeometry x="-0.0409" y="1" relative="1" as="geometry">
            <mxPoint x="301" y="954" as="sourcePoint" />
            <mxPoint x="916" y="954" as="targetPoint" />
            <mxPoint as="offset" />
          </mxGeometry>
        </mxCell>
      </root>
    </mxGraphModel>
  </diagram>
</mxfile>
